<svg width="296" height="324" viewBox="0 0 296 324" fill="none" xmlns="http://www.w3.org/2000/svg">
<g clip-path="url(#clip0_1_2)">
<path d="M148 0L296 162L148 324L0 162L148 0Z" fill="#D32F2F"/>
<path d="M148 0L296 162L148 324V0Z" fill="#C62828"/>
<path d="M148 0L0 162L148 324V0Z" fill="#1976D2"/>
<path d="M148 0L0 162L148 324L296 162L148 0Z" fill="#212121"/>
<path d="M148 0L0 162L148 324L296 162L148 0Z" fill="#212121"/>
<path d="M148 0L0 162L148 324L296 162L148 0Z" fill="#212121"/>
<path d="M148 0L0 162L148 324L296 162L148 0Z" fill="#212121"/>
<path d="M148 0L0 162L148 324L296 162L148 0Z" fill="#212121"/>
<path d="M148 0L0 162L148 324L296 162L148 0Z" fill="#212121"/>
<path d="M148 0L0 162L148 324L296 162L148 0Z" fill="#212121"/>
<path d="M148 0L0 162L148 324L296 162L148 0Z" fill="#212121"/>
<path d="M148 0L0 162L148 324L296 162L148 0Z" fill="#212121"/>
<path d="M148 0L0 162L148 324L296 162L148 0Z" fill="#212121"/>
<path d="M148 0L0 162L148 324L296 162L148 0Z" fill="#212121"/>
<path d="M148 0L0 162L148 324L296 162L148 0Z" fill="#212121"/>
<path d="M148 0L0 162L148 324L296 162L148 0Z" fill="#212121"/>
<path d="M148 0L0 162L148 324L296 162L148 0Z" fill="#212121"/>
<path d="M148 0L0 162L148 324L296 162L148 0Z" fill="#212121"/>
<path d="M148 0L0 162L148 324L296 162L148 0Z" fill="#212121"/>
<path d="M148 0L0 162L148 324L296 162L148 0Z" fill="#212121"/>
<path d="M148 0L0 162L148 324L296 162L148 0Z" fill="#212121"/>
<path d="M148 0L0 162L148 324L296 162L148 0Z" fill="#212121"/>
<path d="M148 0L0 162L148 324L296 162L148 0Z" fill="#212121"/>
<path d="M148 0L0 162L148 324L296 162L148 0Z" fill="#212121"/>
<path d="M148 0L0 162L148 324L296 162L148 0Z" fill="#212121"/>
<path d="M148 0L0 162L148 324L296 162L148 0Z" fill="#212121"/>
<path d="M148 0L0 162L148 324L296 162L148 0Z" fill="#212121"/>
<path d="M148 0L0 162L148 324L296 162L148 0Z" fill="#212121"/>
<path d="M148 0L0 162L148 324L296 162L148 0Z" fill="#212121"/>
<path d="M148 0L0 162L148 324L296 162L148 0Z" fill="#212121"/>
<path d="M148 0L0 162L148 324L296 162L148 0Z" fill="#212121"/>
<path d="M148 0L0 162L148 324L296 162L148 0Z" fill="#212121"/>
<path d="M148 0L0 162L148 324L296 162L148 0Z" fill="#212121"/>
<path d="M148 0L0 162L148 324L296 162L148 0Z" fill="#212121"/>
<path d="M148 0L0 162L148 324L296 162L148 0Z" fill="#212121"/>
<path d="M148 0L0 162L148 324L296 162L148 0Z" fill="#212121"/>
<path d="M148 0L0 162L148 324L296 162L148 0Z" fill="#212121"/>
<path d="M148 0L0 162L148 324L296 162L148 0Z" fill="#212121"/>
<path d="M148 0L0 162L148 324L296 162L148 0Z" fill="#212121"/>
<path d="M148 0L0 162L148 324L296 162L148 0Z" fill="#212121"/>
<path d="M148 0L0 162L148 324L296 162L148 0Z" fill="#212121"/>
<path d="M148 0L0 162L148 324L296 162L148 0Z" fill="#212121"/>
<path d="M148 0L0 162L148 324L296 162L148 0Z" fill="#212121"/>
<path d="M148 0L0 162L148 324L296 162L148 0Z" fill="#212121"/>
<path d="M148 0L0 162L148 324L296 162L148 0Z" fill="#212121"/>
<path d="M148 0L0 162L148 324L296 162L148 0Z" fill="#212121"/>
<path d="M148 0L0 162L148 324L296 162L148 0Z" fill="#212121"/>
<path d="M148 0L0 162L148 324L296 162L148 0Z" fill="#212121"/>
<path d="M148 0L0 162L148 324L296 162L148 0Z" fill="#212121"/>
<path d="M148 0L0 162L148 324L296 162L148 0Z" fill="#212121"/>
<path d="M148 0L0 162L148 324L296 162L148 0Z" fill="#212121"/>
<path d="M148 0L0 162L148 324L296 162L148 0Z" fill="#212121"/>
<path d="M148 0L0 162L148 324L296 162L148 0Z" fill="#212121"/>
<path d="M148 0L0 162L148 324L296 162L148 0Z" fill="#212121"/>
<path d="M148 0L0 162L148 324L296 162L148 0Z" fill="#212121"/>
<path d="M148 0L0 162L148 324L296 162L148 0Z" fill="#212121"/>
<path d="M148 0L0 162L148 324L296 162L148 0Z" fill="#212121"/>
<path d="M148 0L0 162L148 324L296 162L148 0Z" fill="#212121"/>
<path d="M148 0L0 162L148 324L296 162L148 0Z" fill="#212121"/>
<path d="M148 0L0 162L148 324L296 162L148 0Z" fill="#212121"/>
<path d="M148 0L0 162L148 324L296 162L148 0Z" fill="#212121"/>
<path d="M148 0L0 162L148 324L296 162L148 0Z" fill="#212121"/>
<path d="M148 0L0 162L148 324L296 162L148 0Z" fill="#212121"/>
<path d="M148 0L0 162L148 324L296 162L148 0Z" fill="#212121"/>
<path d="M148 0L0 162L148 324L296 162L148 0Z" fill="#212121"/>
<path d="M148 0L0 162L148 324L296 162L148 0Z" fill="#212121"/>
<path d="M148 0L0 162L148 324L296 162L148 0Z" fill="#212121"/>
<path d="M148 0L0 162L148 324L296 162L148 0Z" fill="#212121"/>
<path d="M148 0L0 162L148 324L296 162L148 0Z" fill="#212121"/>
<path d="M148 0L0 162L148 324L296 162L148 0Z" fill="#212121"/>
<path d="M148 0L0 162L148 324L296 162L148 0Z" fill="#212121"/>
<path d="M148 0L0 162L148 324L296 162L148 0Z" fill="#212121"/>
<path d="M148 0L0 162L148 324L296 162L148 0Z" fill="#212121"/>
<path d="M148 0L0 162L148 324L296 162L148 0Z" fill="#212121"/>
<path d="M148 0L0 162L148 324L296 162L148 0Z" fill="#212121"/>
<defs>
<clipPath id="clip0_1_2">
<rect width="296" height="324" fill="white"/>
</clipPath>
</defs>
</svg>
